<svg width="336" height="246" viewBox="0 0 336 246" fill="none" xmlns="http://www.w3.org/2000/svg">
<rect width="336" height="156" rx="4" fill="#F5F5F5"/>
<path d="M257 155.965C257 205.098 217.154 244.929 168 244.929C118.846 244.929 79 205.098 79 155.965C79 106.831 118.846 67 168 67C217.154 67 257 106.831 257 155.965Z" stroke="#BF8C4E" stroke-width="2"/>
<path d="M237.5 155.965C237.5 194.333 206.384 225.437 168 225.437C129.616 225.437 98.5 194.333 98.5 155.965C98.5 117.596 129.616 86.4922 168 86.4922C206.384 86.4922 237.5 117.596 237.5 155.965Z" stroke="#BF8C4E"/>
<mask id="mask0_434_5178" style="mask-type:alpha" maskUnits="userSpaceOnUse" x="78" y="66" width="180" height="180">
<path d="M257 155.965C257 205.098 217.154 244.929 168 244.929C118.846 244.929 79 205.098 79 155.965C79 106.831 118.846 67 168 67C217.154 67 257 106.831 257 155.965Z" fill="#1A1A1A" stroke="#1A1A1A" stroke-width="2"/>
</mask>
<g mask="url(#mask0_434_5178)">
<rect x="69" y="125.976" width="198" height="59.9764" fill="#BF8C4E"/>
</g>
<path d="M142.185 174.25L142.185 138.445L173.203 138.445C175.874 138.445 178.095 139 179.864 140.111C181.668 141.221 183.021 142.678 183.923 144.482C184.825 146.286 185.276 148.229 185.276 150.311C185.276 152.705 184.739 154.839 183.663 156.712C182.622 158.551 181.078 160.026 179.031 161.136L186.109 174.25L171.589 174.25L166.177 163.061L155.04 163.061L155.04 174.25L142.185 174.25ZM155.04 154.162L168.675 154.162C169.646 154.162 170.462 153.867 171.121 153.277C171.78 152.653 172.11 151.803 172.11 150.727C172.11 149.999 171.953 149.391 171.641 148.906C171.329 148.385 170.913 148.004 170.392 147.761C169.906 147.483 169.334 147.344 168.675 147.344L155.04 147.344L155.04 154.162Z" fill="white"/>
<path d="M119.556 173.826C115.219 173.826 111.628 173.358 108.783 172.421C105.973 171.449 103.891 170.166 102.538 168.57C101.185 166.974 100.508 165.222 100.508 163.313L100.508 162.22L111.853 162.22L111.853 163.209C111.853 164.181 112.408 164.979 113.519 165.603C114.664 166.193 116.398 166.488 118.723 166.488C121.464 166.488 123.389 166.072 124.5 165.239C125.645 164.406 126.217 163.296 126.217 161.908C126.217 161.11 125.992 160.451 125.541 159.931C125.089 159.41 124.5 159.028 123.771 158.786C123.042 158.508 122.245 158.369 121.377 158.369L116.173 158.369L116.173 151.552L120.336 151.552C121.204 151.552 122.002 151.43 122.73 151.187C123.459 150.91 124.049 150.511 124.5 149.99C124.951 149.47 125.176 148.811 125.176 148.013C125.176 147.284 124.933 146.625 124.448 146.035C123.997 145.411 123.285 144.925 122.314 144.578C121.377 144.196 120.18 144.006 118.723 144.006C117.647 144.006 116.659 144.162 115.757 144.474C114.889 144.786 114.195 145.203 113.675 145.723C113.154 146.209 112.894 146.746 112.894 147.336L112.894 148.065L101.965 148.065L101.965 146.556C101.965 144.751 102.659 143.121 104.047 141.664C105.435 140.172 107.447 138.992 110.084 138.125C112.755 137.223 115.999 136.772 119.816 136.772C123.598 136.772 126.772 137.205 129.34 138.073C131.907 138.905 133.85 140.05 135.168 141.507C136.487 142.965 137.146 144.63 137.146 146.504C137.146 147.787 136.868 148.967 136.313 150.042C135.758 151.083 134.995 151.985 134.023 152.749C133.052 153.477 131.924 154.032 130.641 154.414L130.641 154.622C133.104 155.108 135.012 156.131 136.365 157.693C137.753 159.219 138.447 161.145 138.447 163.469C138.447 165.378 137.771 167.112 136.417 168.674C135.064 170.235 132.983 171.484 130.172 172.421C127.397 173.358 123.858 173.826 119.556 173.826Z" fill="white"/>
<path d="M186.566 174.145L203.636 155.67L188.127 138.339L204.729 138.339L211.755 146.822L212.171 146.822L219.665 138.339L234.861 138.339L219.249 155.149L236.267 174.145L219.717 174.145L211.182 164.049L210.714 164.049L201.866 174.145L186.566 174.145Z" fill="white"/>
<path d="M108.714 114.408C107.224 116.425 105.679 117.627 104.081 118.013C102.49 118.389 100.825 117.936 99.0876 116.653C97.9581 115.819 97.2046 114.86 96.827 113.776C96.447 112.675 96.4311 111.485 96.7795 110.206C97.1279 108.926 97.8156 107.592 98.8425 106.202C99.4772 105.343 100.148 104.608 100.854 103.995C101.557 103.366 102.267 102.891 102.982 102.569C103.705 102.237 104.413 102.096 105.107 102.146C105.799 102.18 106.458 102.428 107.086 102.891L104.968 105.758C104.697 105.558 104.402 105.474 104.08 105.505C103.756 105.519 103.424 105.625 103.085 105.822C102.746 106.019 102.411 106.279 102.083 106.603C101.744 106.92 101.425 107.281 101.125 107.686C100.697 108.265 100.37 108.829 100.144 109.378C99.9174 109.927 99.8036 110.454 99.8024 110.961C99.7917 111.46 99.8959 111.925 100.115 112.355C100.341 112.776 100.686 113.157 101.15 113.499L101.497 113.756C102.154 114.241 102.789 114.501 103.404 114.537C104.009 114.566 104.601 114.392 105.179 114.013C105.757 113.635 106.324 113.069 106.881 112.316C107.387 111.631 107.764 110.999 108.012 110.422C108.257 109.827 108.355 109.31 108.307 108.872C108.265 108.423 108.085 108.081 107.766 107.846L107.679 107.782L105.112 111.256L103.215 109.856L107.922 103.486L113.482 107.592L112.209 109.315L110.819 108.713C110.85 109.317 110.788 109.936 110.634 110.568C110.488 111.19 110.252 111.822 109.928 112.463C109.604 113.104 109.199 113.752 108.714 114.408Z" fill="black"/>
<path d="M121.47 100.901C120.208 101.936 119.016 102.612 117.894 102.928C116.763 103.234 115.709 103.207 114.729 102.846C113.742 102.476 112.845 101.8 112.038 100.816L107.881 95.7525L110.706 93.4349L114.76 98.3737C115.461 99.2269 116.247 99.6922 117.117 99.7694C117.988 99.8466 118.864 99.5237 119.746 98.8007C120.627 98.0776 121.115 97.2817 121.209 96.4129C121.303 95.5442 121 94.6832 120.299 93.8299L116.244 88.8912L119.083 86.5622L123.241 91.6261C124.048 92.6092 124.537 93.6207 124.707 94.6604C124.87 95.6909 124.686 96.7341 124.156 97.7901C123.627 98.8292 122.732 99.8663 121.47 100.901Z" fill="black"/>
<path d="M128.519 94.9666L128.681 81.1714L132.369 79.4137L143.192 87.9744L139.601 89.6857L137.904 88.3012L131.924 91.1507L131.932 93.3405L128.519 94.9666ZM131.875 88.2033L135.645 86.4069L133.552 84.6124C133.463 84.5356 133.336 84.4232 133.172 84.2752C133.003 84.1163 132.827 83.9547 132.642 83.7902C132.452 83.6148 132.283 83.456 132.135 83.3137C131.983 83.1605 131.864 83.0509 131.779 82.9849L131.665 83.0391C131.683 83.2702 131.699 83.5416 131.715 83.8531C131.73 84.1647 131.746 84.4629 131.762 84.7476C131.789 85.0272 131.801 85.2609 131.797 85.4487L131.875 88.2033Z" fill="black"/>
<path d="M145.839 87.1731L143.379 75.036L153.47 72.9919C154.352 72.8132 155.118 72.8478 155.768 73.0957C156.419 73.3435 156.952 73.7376 157.367 74.2778C157.78 74.8063 158.059 75.4234 158.202 76.129C158.357 76.8935 158.316 77.6301 158.08 78.3391C157.842 79.0363 157.395 79.641 156.74 80.1533L160.147 84.275L156.089 85.0969L153.259 81.4644L148.602 82.4078L149.421 86.4477L145.839 87.1731ZM148.065 79.7617L153.393 78.6825C153.828 78.5943 154.149 78.3947 154.355 78.0835C154.562 77.7724 154.621 77.3992 154.532 76.9641C154.475 76.6818 154.368 76.4526 154.209 76.2765C154.049 76.0887 153.852 75.9632 153.619 75.9003C153.386 75.8373 153.122 75.8356 152.828 75.8952L147.5 76.9744L148.065 79.7617Z" fill="black"/>
<path d="M162.463 83.9932L169.114 71.904L173.196 72.0931L178.7 84.7453L174.726 84.5612L173.883 82.54L167.266 82.2335L166.239 84.1681L162.463 83.9932ZM168.613 79.611L172.785 79.8043L171.786 77.2353C171.743 77.1252 171.685 76.9664 171.61 76.7587C171.536 76.539 171.457 76.3131 171.371 76.0809C171.287 75.8367 171.213 75.6171 171.15 75.4219C171.087 75.2148 171.034 75.0622 170.991 74.9641L170.865 74.9583C170.771 75.1701 170.657 75.4172 170.524 75.6993C170.391 75.9814 170.264 76.2519 170.144 76.5106C170.036 76.7699 169.936 76.9815 169.845 77.1454L168.613 79.611Z" fill="black"/>
<path d="M181.175 85.1892L184.776 73.3404L187.911 74.2923L192.362 81.6826C192.438 81.8058 192.531 81.9722 192.643 82.1818C192.767 82.3948 192.888 82.6136 193.008 82.8381C193.14 83.0661 193.246 83.274 193.327 83.4616L193.482 83.5086C193.545 83.302 193.617 83.0419 193.7 82.7284C193.794 82.4184 193.878 82.1429 193.951 81.9017L195.558 76.6145L198.865 77.6187L195.264 89.4676L192.181 88.5314L187.831 81.3035C187.628 80.9787 187.423 80.6217 187.216 80.2325C187.008 79.8434 186.838 79.5348 186.707 79.3067L186.569 79.2649C186.524 79.4142 186.45 79.6553 186.349 79.9882C186.259 80.3247 186.157 80.6824 186.042 81.0612L184.482 86.1935L181.175 85.1892Z" fill="black"/>
<path d="M202.749 93.437L207.548 85.317L202.929 82.5895L204.431 80.0481L216.83 87.3702L215.328 89.9116L210.71 87.1841L205.911 95.3041L202.749 93.437Z" fill="black"/>
<path d="M212.223 99.3815L220.691 90.3447L230.099 99.1532L228.241 101.137L221.513 94.8378L220.085 96.3614L225.972 101.873L224.175 103.791L218.288 98.2791L216.762 99.9078L223.595 106.305L221.737 108.288L212.223 99.3815Z" fill="black"/>
<path d="M224.266 111.244L234.567 104.369L241.725 115.087L239.464 116.596L234.346 108.932L232.609 110.091L237.088 116.797L234.902 118.256L230.423 111.55L228.566 112.789L233.765 120.572L231.504 122.081L224.266 111.244Z" fill="black"/>
<path d="M97.9055 205.572C96.415 203.555 95.7201 201.726 95.8209 200.085C95.9287 198.454 96.8515 196.997 98.5891 195.714C99.7186 194.88 100.857 194.442 102.005 194.4C103.169 194.361 104.312 194.696 105.433 195.405C106.553 196.114 107.627 197.163 108.654 198.553C109.289 199.412 109.795 200.268 110.173 201.123C110.568 201.98 110.814 202.798 110.911 203.576C111.016 204.364 110.943 205.082 110.691 205.731C110.455 206.382 110.024 206.939 109.397 207.402L107.279 204.536C107.549 204.336 107.716 204.078 107.781 203.762C107.863 203.448 107.859 203.1 107.771 202.718C107.682 202.336 107.531 201.94 107.318 201.53C107.115 201.114 106.863 200.703 106.564 200.298C106.136 199.718 105.693 199.24 105.235 198.862C104.777 198.485 104.306 198.221 103.822 198.071C103.348 197.914 102.873 197.877 102.397 197.96C101.928 198.052 101.462 198.269 100.999 198.612L100.651 198.868C99.9946 199.353 99.5587 199.884 99.3433 200.46C99.1375 201.03 99.1306 201.647 99.3226 202.31C99.5147 202.974 99.8888 203.682 100.445 204.435C100.951 205.12 101.444 205.666 101.924 206.073C102.42 206.482 102.885 206.728 103.319 206.81C103.76 206.902 104.14 206.831 104.459 206.595L104.546 206.531L101.978 203.057L103.875 201.656L108.582 208.026L103.021 212.132L101.748 210.409L102.733 209.257C102.146 209.109 101.572 208.868 101.013 208.535C100.461 208.212 99.9261 207.802 99.4089 207.303C98.8916 206.805 98.3904 206.228 97.9055 205.572Z" fill="black"/>
<path d="M112.944 221.484C111.682 220.449 110.787 219.412 110.258 218.373C109.737 217.324 109.558 216.285 109.721 215.255C109.892 214.215 110.38 213.203 111.188 212.22L115.345 207.156L118.17 209.474L114.115 214.413C113.415 215.266 113.112 216.127 113.206 216.996C113.3 217.864 113.787 218.66 114.669 219.383C115.55 220.106 116.426 220.429 117.297 220.352C118.168 220.275 118.953 219.81 119.654 218.956L123.709 214.018L126.548 216.347L122.39 221.411C121.583 222.394 120.686 223.07 119.699 223.44C118.72 223.801 117.66 223.824 116.521 223.51C115.398 223.195 114.206 222.519 112.944 221.484Z" fill="black"/>
<path d="M122.919 228.774L133.742 220.213L137.431 221.971L137.593 235.766L134.001 234.055L134.009 231.865L128.029 229.015L126.332 230.4L122.919 228.774ZM130.288 227.121L134.058 228.918L134.136 226.163C134.139 226.045 134.146 225.876 134.158 225.655C134.175 225.424 134.19 225.185 134.201 224.938C134.218 224.68 134.235 224.449 134.253 224.245C134.276 224.03 134.286 223.868 134.284 223.761L134.17 223.707C134.001 223.866 133.801 224.049 133.569 224.258C133.336 224.466 133.114 224.666 132.903 224.858C132.703 225.055 132.529 225.211 132.381 225.327L130.288 227.121Z" fill="black"/>
<path d="M143.255 237.576L145.716 225.439L155.807 227.483C156.689 227.662 157.381 227.992 157.884 228.473C158.386 228.954 158.723 229.525 158.896 230.184C159.071 230.832 159.086 231.508 158.943 232.214C158.788 232.978 158.464 233.641 157.971 234.202C157.48 234.752 156.833 235.135 156.03 235.352L157.563 240.474L153.505 239.652L152.313 235.205L147.656 234.262L146.837 238.301L143.255 237.576ZM148.192 231.615L153.52 232.695C153.955 232.783 154.328 232.724 154.639 232.517C154.951 232.311 155.15 231.99 155.238 231.555C155.296 231.273 155.286 231.02 155.209 230.796C155.134 230.561 155.001 230.369 154.811 230.22C154.621 230.071 154.379 229.967 154.085 229.907L148.757 228.828L148.192 231.615Z" fill="black"/>
<path d="M184.958 239.257L181.357 227.408L184.491 226.456L192.303 230.122C192.434 230.183 192.605 230.269 192.814 230.381C193.035 230.489 193.258 230.604 193.483 230.724C193.719 230.84 193.923 230.954 194.094 231.065L194.249 231.017C194.187 230.811 194.102 230.554 193.997 230.248C193.902 229.938 193.819 229.662 193.745 229.421L192.139 224.134L195.445 223.13L199.047 234.979L195.964 235.915L188.326 232.327C187.977 232.17 187.608 231.987 187.219 231.779C186.83 231.571 186.517 231.409 186.281 231.293L186.143 231.335C186.189 231.484 186.262 231.725 186.363 232.058C186.476 232.387 186.59 232.742 186.705 233.12L188.265 238.253L184.958 239.257Z" fill="black"/>
<path d="M209.365 229.76L204.567 221.64L199.948 224.368L198.446 221.826L210.846 214.504L212.347 217.046L207.729 219.773L212.527 227.893L209.365 229.76Z" fill="black"/>
<path d="M221.116 222.108L212.648 213.071L222.056 204.263L223.915 206.246L217.187 212.545L218.615 214.069L224.501 208.557L226.298 210.475L220.412 215.986L221.938 217.615L228.771 211.218L230.629 213.201L221.116 222.108Z" fill="black"/>
<path d="M235.082 207.974L224.781 201.099L231.939 190.382L234.2 191.891L229.081 199.555L230.818 200.714L235.297 194.008L237.482 195.467L233.004 202.172L234.86 203.411L240.059 195.628L242.32 197.137L235.082 207.974Z" fill="black"/>
</svg>
